<?xml version="1.0" encoding="UTF-8"?>
<svg version="1.1" xmlns="http://www.w3.org/2000/svg" width="500" height="500">
<path d="M0 0 C165 0 330 0 500 0 C500 165 500 330 500 500 C335 500 170 500 0 500 C0 335 0 170 0 0 Z " fill="#FEFEFE" transform="translate(0,0)"/>
<path d="M0 0 C2 1 2 1 2.78736877 2.83003235 C3.04001999 3.63160263 3.2926712 4.43317291 3.55297852 5.2590332 C3.99009911 6.62625015 3.99009911 6.62625015 4.43605042 8.02108765 C4.74719284 9.02088654 5.05833527 10.02068542 5.37890625 11.05078125 C5.87154213 12.60171982 5.87154213 12.60171982 6.37413025 14.18399048 C7.444092 17.55793853 8.50341654 20.9351231 9.5625 24.3125 C10.28834785 26.60968231 11.01491029 28.90663896 11.7421875 31.20336914 C12.82490223 34.62367017 13.90684927 38.04419878 14.98562622 41.46574402 C16.98322062 47.80115528 18.99991774 54.12948519 21.05859375 60.4453125 C21.27544327 61.11183334 21.49229279 61.77835419 21.7157135 62.46507263 C22.67657457 65.41674703 23.64134573 68.36706311 24.61157227 71.31567383 C24.93569092 72.3136499 25.25980957 73.31162598 25.59375 74.33984375 C25.86896484 75.17894287 26.14417969 76.01804199 26.42773438 76.88256836 C27 79 27 79 27 82 C113.79 82 200.58 82 290 82 C290 82.33 290 82.66 290 83 C289.39709641 83.02870178 288.79419281 83.05740356 288.17301941 83.0869751 C257.68383942 84.54223462 227.20969733 86.12665814 196.74293137 87.99829865 C165.66624744 89.90548687 134.57527375 91.51809944 103.48030567 93.09593582 C98.54410018 93.34660357 93.60797354 93.59879836 88.671875 93.8515625 C87.72463373 93.89993759 86.77739246 93.94831268 85.80144691 93.99815369 C72.43967112 94.6830958 59.08684358 95.45365123 45.74078369 96.39883423 C35.81759594 97.0841343 25.9419281 97.212788 16 97 C12.55677551 88.57508902 9.77000512 80.12943527 7.26953125 71.390625 C5.97886431 66.88391973 4.59416032 62.40917269 3.1875 57.9375 C2.96835938 57.24035889 2.74921875 56.54321777 2.5234375 55.82495117 C2.01682601 54.2162554 1.50860762 52.60806579 1 51 C-1.12819548 54.19229322 -1.96023344 56.76722892 -3.0625 60.4375 C-3.49337247 61.85329727 -3.9257996 63.26862189 -4.359375 64.68359375 C-4.60880859 65.49812012 -4.85824219 66.31264648 -5.11523438 67.15185547 C-6.96794972 73.11592203 -8.89669229 79.05596899 -10.8125 85 C-12.194375 89.29 -13.57625 93.58 -15 98 C-31.17 98.33 -47.34 98.66 -64 99 C-58.39 102.96 -52.78 106.92 -47 111 C-43.72380228 113.34751175 -40.45067673 115.69722416 -37.1875 118.0625 C-36.43919922 118.60326172 -35.69089844 119.14402344 -34.91992188 119.70117188 C-31.59287482 122.10816132 -28.28061244 124.52990781 -25 127 C-27.59383138 137.28095391 -31.04384902 147.25248407 -34.46508789 157.27880859 C-35.21360797 159.47626829 -35.95667208 161.67551603 -36.69921875 163.875 C-37.04601936 164.88276489 -37.04601936 164.88276489 -37.39982605 165.91088867 C-38.35497135 168.74601158 -39 170.9841416 -39 174 C-38.54898926 173.67427002 -38.09797852 173.34854004 -37.63330078 173.01293945 C-36.99376465 172.55105225 -36.35422852 172.08916504 -35.6953125 171.61328125 C-34.61455444 170.83271362 -34.61455444 170.83271362 -33.51196289 170.03637695 C-31.90703381 168.87728887 -30.30205247 167.71827313 -28.69702148 166.55932617 C-24.43091097 163.47873131 -20.16568108 160.39693188 -15.90234375 157.3125 C-15.09071777 156.72557373 -14.2790918 156.13864746 -13.44287109 155.53393555 C-11.87907467 154.40303005 -10.31558838 153.27169557 -8.75244141 152.13989258 C-8.0413623 151.62579834 -7.3302832 151.1117041 -6.59765625 150.58203125 C-5.66191772 149.90491089 -5.66191772 149.90491089 -4.70727539 149.21411133 C-0.06076754 145.90979508 3.28570434 145.6440074 8.84912109 145.52929688 C9.76127412 145.50291987 10.67342714 145.47654287 11.61322117 145.44936657 C14.66645286 145.36339308 17.71985505 145.29110598 20.7734375 145.21875 C22.93667303 145.1605624 25.09988596 145.10152909 27.26307678 145.04170227 C33.09077428 144.8829168 38.9187148 144.73590102 44.74677658 144.59119034 C50.79107309 144.43927537 56.83509439 144.27712002 62.87915039 144.1159668 C72.62486069 143.85733976 82.37071421 143.6049796 92.11669922 143.35693359 C103.5860677 143.06468349 115.05491574 142.75619838 126.52359009 142.43797684 C132.55963293 142.27093174 138.59576765 142.10724392 144.63189697 141.94335938 C147.78813572 141.85764201 150.94434108 141.7708209 154.1005249 141.68310547 C172.73809876 141.16732458 191.35437087 140.87645317 210 141 C210 141.33 210 141.66 210 142 C191.90763351 144.42042708 173.78663755 146.47894333 155.63035393 148.35695648 C126.4050792 151.38450123 97.20213121 154.6004464 68.00610352 157.89697266 C61.56670471 158.62375225 55.12652479 159.34337616 48.68617153 160.06164169 C43.6371818 160.62592011 38.58874534 161.19503018 33.54045296 161.76551056 C31.16088806 162.03360269 28.78112384 162.2999324 26.40115166 162.56438446 C23.12026806 162.9294107 19.84022543 163.30125633 16.56030273 163.67480469 C15.60327957 163.77974747 14.64625641 163.88469025 13.66023254 163.99281311 C5.46124492 164.93929661 -1.33064772 165.89434385 -7.875 171.3125 C-9.00299002 172.22280774 -10.13333161 173.13020689 -11.265625 174.03515625 C-11.86568359 174.51742676 -12.46574219 174.99969727 -13.08398438 175.49658203 C-16.51759822 178.19079636 -20.0753383 180.71189196 -23.625 183.25 C-29.98542786 187.81791903 -36.32096263 192.41701492 -42.625 197.0625 C-43.4075415 197.6385498 -44.19008301 198.21459961 -44.99633789 198.80810547 C-48.9117484 201.69699625 -52.80984994 204.60621522 -56.68359375 207.55078125 C-57.42206543 208.11079834 -58.16053711 208.67081543 -58.92138672 209.24780273 C-60.3182472 210.30938485 -61.71196405 211.37511997 -63.10205078 212.44555664 C-67.77904632 216 -67.77904632 216 -70 216 C-68.00819832 208.47419484 -65.82032347 201.03587724 -63.4375 193.625 C-63.0974292 192.5620874 -62.7573584 191.4991748 -62.40698242 190.40405273 C-59.66780926 181.91206206 -56.75585135 173.48551237 -53.8125 165.0625 C-50.11315689 154.47182518 -46.76527684 143.87190422 -44 133 C-44.45101074 132.67427002 -44.90202148 132.34854004 -45.36669922 132.01293945 C-52.43457031 126.90836589 -59.50244141 121.80379232 -66.5703125 116.69921875 C-67.30290283 116.17013916 -68.03549316 115.64105957 -68.7902832 115.09594727 C-70.27324478 114.02489215 -71.75615426 112.95376491 -73.23901367 111.88256836 C-77.02662254 109.14659343 -80.81515875 106.41191943 -84.60546875 103.6796875 C-88.34388505 100.98434725 -92.07974029 98.28550211 -95.81298828 95.58300781 C-97.2899973 94.51391577 -98.76755018 93.44557476 -100.24560547 92.37792969 C-102.3745735 90.8387022 -104.50024909 89.29504154 -106.625 87.75 C-107.59409302 87.05076416 -107.59409302 87.05076416 -108.58276367 86.33740234 C-110.073566 85.24970309 -111.53984022 84.12850107 -113 83 C-113 82.67 -113 82.34 -113 82 C-84.29 82 -55.58 82 -26 82 C-25.34 78.7 -24.68 75.4 -24 72 C-23.40880538 69.90248933 -22.77766117 67.81547834 -22.09228516 65.74682617 C-21.7249527 64.62833786 -21.35762024 63.50984955 -20.97915649 62.35746765 C-20.58642548 61.18118301 -20.19369446 60.00489838 -19.7890625 58.79296875 C-19.16323685 56.89383969 -18.53741218 54.9947103 -17.91164207 53.09556293 C-17.04070702 50.45735863 -16.16438175 47.82095718 -15.28814697 45.18450928 C-13.76064831 40.58458025 -12.24217825 35.98166198 -10.72299194 31.37898254 C-9.91686447 28.93846484 -9.10890319 26.49855177 -8.29873657 24.05937195 C-6.03403815 17.22263923 -3.87064099 10.36587894 -1.8152771 3.46308899 C-1 1 -1 1 0 0 Z " fill="#FF3434" transform="translate(146,150)"/>
<path d="M0 0 C2.05264866 2.05264866 2.56528526 3.13767959 3.5078125 5.80859375 C3.90419922 6.92911133 3.90419922 6.92911133 4.30859375 8.07226562 C4.57800781 8.85279297 4.84742188 9.63332031 5.125 10.4375 C5.40214844 11.21416016 5.67929688 11.99082031 5.96484375 12.79101562 C8 18.61076047 8 18.61076047 8 22 C15.92 22 23.84 22 32 22 C28.26870735 25.73129265 24.88641701 28.72098967 20.6875 31.8125 C20.13771484 32.21919922 19.58792969 32.62589844 19.02148438 33.04492188 C17.68374453 34.03368611 16.34226377 35.01738585 15 36 C15.90095844 41.52098951 18.03128345 46.52572539 20.0390625 51.72265625 C21 55 21 55 20 59 C11.09 53.06 11.09 53.06 2 47 C-2.24324343 49.82882895 -6.31478285 52.68228037 -10.375 55.75 C-10.92027344 56.16121094 -11.46554688 56.57242188 -12.02734375 56.99609375 C-13.35268356 57.9959115 -14.67650492 58.99774159 -16 60 C-17.00143475 56.8956389 -16.98387796 55.08254149 -15.96875 51.99609375 C-15.73542969 51.25552734 -15.50210938 50.51496094 -15.26171875 49.75195312 C-15.01035156 48.98818359 -14.75898438 48.22441406 -14.5 47.4375 C-14.00241782 45.91796058 -13.51248451 44.39588928 -13.03125 42.87109375 C-12.81017578 42.20005615 -12.58910156 41.52901855 -12.36132812 40.83764648 C-11.7996093 38.77897659 -11.7996093 38.77897659 -13 36 C-15.60379502 33.96680763 -15.60379502 33.96680763 -18.75 32 C-19.79671875 31.319375 -20.8434375 30.63875 -21.921875 29.9375 C-23.88278262 28.70322312 -25.87087246 27.51042845 -27.890625 26.375 C-28.58671875 25.92125 -29.2828125 25.4675 -30 25 C-30 24.34 -30 23.68 -30 23 C-22.08 23 -14.16 23 -6 23 C-5.67 21.02 -5.34 19.04 -5 17 C-4.35943025 14.40569251 -3.69896463 11.82806518 -3 9.25 C-2.82210937 8.57839844 -2.64421875 7.90679687 -2.4609375 7.21484375 C-1.1308171 2.2616342 -1.1308171 2.2616342 0 0 Z " fill="#070707" transform="translate(144,234)"/>
<path d="M0 0 C3.17397573 0.90685021 3.86952277 1.7826448 5.58984375 4.6484375 C7.15257879 8.3626388 7.40139949 10.98727772 7.375 15 C7.38273437 16.175625 7.39046875 17.35125 7.3984375 18.5625 C6.82275311 23.52918887 5.15897169 26.80970475 1.6875 30.375 C-1.63769136 32.38558082 -3.1762404 32.70232319 -7 32 C-9.88211765 30.30424241 -12.49993883 28.41334655 -13.65234375 25.15625 C-14.86627256 17.62716347 -14.46880094 10.81798805 -11 4 C-7.50879986 0.22572958 -5.09334125 -0.65021378 0 0 Z " fill="#0D53B1" transform="translate(215,252)"/>
<path d="M0 0 C3.79144831 9.43050595 7.38525052 19.71381119 7 30 C4.36 30 1.72 30 -1 30 C-1.66 28.35 -2.32 26.7 -3 25 C-5.45224694 25.10613836 -5.45224694 25.10613836 -8 26 C-9.37466625 28.47636012 -9.37466625 28.47636012 -10 31 C-12.64 31 -15.28 31 -18 31 C-16.87881462 24.57866558 -15.32760187 18.37514484 -13.5 12.125 C-13.28641846 11.38773682 -13.07283691 10.65047363 -12.8527832 9.89086914 C-10.74540851 2.80109914 -10.74540851 2.80109914 -9 0 C-5.93109813 -1.53445094 -3.29905734 -0.54984289 0 0 Z " fill="#0E54B1" transform="translate(267,251)"/>
<path d="M0 0 C2.97 0.495 2.97 0.495 6 1 C7.17348495 4.52045486 6.75316049 5.85279885 5.85546875 9.40234375 C5.59056641 10.45744141 5.32566406 11.51253906 5.05273438 12.59960938 C4.76720703 13.70111328 4.48167969 14.80261719 4.1875 15.9375 C3.91357422 17.03513672 3.63964844 18.13277344 3.35742188 19.26367188 C1.09076118 28.17268116 1.09076118 28.17268116 -1 32 C-3.31 32 -5.62 32 -8 32 C-10.12581288 25.95821602 -11.94734511 19.84933969 -13.6875 13.6875 C-13.91397217 12.89875488 -14.14044434 12.11000977 -14.3737793 11.29736328 C-14.58429932 10.54310059 -14.79481934 9.78883789 -15.01171875 9.01171875 C-15.29728638 7.99791138 -15.29728638 7.99791138 -15.58862305 6.96362305 C-16 5 -16 5 -16 1 C-13.69 1 -11.38 1 -9 1 C-7.23594993 5.65067745 -5.57451482 10.27645553 -4 15 C-2.68 10.05 -1.36 5.1 0 0 Z " fill="#0C53B1" transform="translate(239,251)"/>
<path d="M0 0 C2.63190532 0.05670173 4.21141463 0.25956585 6.6875 1.25 C9.0898404 4.45312054 8.44497761 7.32346641 8.1875 11.25 C5.8775 11.25 3.5675 11.25 1.1875 11.25 C1.1875 9.6 1.1875 7.95 1.1875 6.25 C0.1975 6.745 0.1975 6.745 -0.8125 7.25 C-0.8125 8.57 -0.8125 9.89 -0.8125 11.25 C0.86965586 12.72076919 0.86965586 12.72076919 3.0625 13.8125 C6.15224532 15.50133929 7.15624681 16.20312021 9.1875 19.25 C8.94067254 23.77517018 8.4511109 26.9863891 5.1875 30.25 C0.39613728 31.84712091 -4.07099269 31.83050244 -8.8125 30.25 C-9.4725 29.92 -10.1325 29.59 -10.8125 29.25 C-10.4825 27.6 -10.1525 25.95 -9.8125 24.25 C-5.87579512 22.93776504 -3.68761856 24.00703744 0.1875 25.25 C-0.18684616 22.55353781 -0.58997992 21.45477603 -2.625 19.58203125 C-3.346875 19.08058594 -4.06875 18.57914062 -4.8125 18.0625 C-5.534375 17.55332031 -6.25625 17.04414063 -7 16.51953125 C-7.598125 16.10058594 -8.19625 15.68164062 -8.8125 15.25 C-9.8125 14.25 -9.8125 14.25 -10.1875 10.5 C-10.16772673 6.82876361 -9.88993415 6.34331807 -7.375 3.3125 C-6.529375 2.631875 -5.68375 1.95125 -4.8125 1.25 C-3.8125 0.25 -3.8125 0.25 0 0 Z " fill="#0D53B1" transform="translate(286.8125,248.75)"/>
<path d="M0 0 C2.64 0 5.28 0 8 0 C8 7.26 8 14.52 8 22 C9.32 21.67 10.64 21.34 12 21 C14.33300933 20.96111651 16.66709801 20.9551365 19 21 C19 23.97 19 26.94 19 30 C12.51176374 30.73106887 6.60842132 31 0 31 C0 20.77 0 10.54 0 0 Z " fill="#0E54B1" transform="translate(181,254)"/>
<path d="M0 0 C0.99 0.33 1.98 0.66 3 1 C3 1.99 3 2.98 3 4 C3.66 4.33 4.32 4.66 5 5 C5.56561146 10.65611463 3.71391278 14.22642128 1 19 C0.34 19 -0.32 19 -1 19 C-2.4097034 16.1805932 -2.16984647 13.76732774 -2.1875 10.625 C-2.20167969 9.48289062 -2.21585938 8.34078125 -2.23046875 7.1640625 C-2.01170034 4.16063184 -1.57080637 2.52074066 0 0 Z " fill="#E9EFF8" transform="translate(211,258)"/>
<path d="M0 0 C2.64 0 5.28 0 8 0 C8 2.31 8 4.62 8 7 C4.62902617 8.49821059 2.79557881 9 -1 9 C-0.67 6.03 -0.34 3.06 0 0 Z " fill="#6B85FF" transform="translate(190,325)"/>
<path d="M0 0 C2.31 0 4.62 0 7 0 C7.53012738 1.28788008 8.0488329 2.58046678 8.5625 3.875 C8.99755859 4.95394531 8.99755859 4.95394531 9.44140625 6.0546875 C10 8 10 8 9 10 C7.35 9.67 5.7 9.34 4 9 C4 7.68 4 6.36 4 5 C3.01 5.33 2.02 5.66 1 6 C0.67 4.02 0.34 2.04 0 0 Z " fill="#1B5DB5" transform="translate(223,252)"/>
<path d="M0 0 C0 0.99 0 1.98 0 3 C-0.66 3 -1.32 3 -2 3 C-1.67 4.98 -1.34 6.96 -1 9 C-3.31 9 -5.62 9 -8 9 C-7.4140625 2.84765625 -7.4140625 2.84765625 -7 1 C-4.53721199 -0.231394 -2.7204945 -0.07159196 0 0 Z " fill="#7991FF" transform="translate(417,300)"/>
<path d="M0 0 C0.99 0.33 1.98 0.66 3 1 C2.34 3.64 1.68 6.28 1 9 C0.01 9 -0.98 9 -2 9 C-2.66 8.34 -3.32 7.68 -4 7 C-4.33 7.99 -4.66 8.98 -5 10 C-5.66 10 -6.32 10 -7 10 C-6.67 7.03 -6.34 4.06 -6 1 C-4.68 1 -3.36 1 -2 1 C-1.67 1.66 -1.34 2.32 -1 3 C-0.67 2.01 -0.34 1.02 0 0 Z " fill="#738CFF" transform="translate(385,303)"/>
<path d="M0 0 C1.32 0 2.64 0 4 0 C3.67 2.31 3.34 4.62 3 7 C3.66 7 4.32 7 5 7 C5 5.02 5 3.04 5 1 C6.32 0.67 7.64 0.34 9 0 C7.94124926 3.40312738 6.99097846 6.01353231 5 9 C2.375 9.1875 2.375 9.1875 0 9 C0 6.03 0 3.06 0 0 Z " fill="#6581FF" transform="translate(222,321)"/>
<path d="M0 0 C1.32 0.33 2.64 0.66 4 1 C4 3.64 4 6.28 4 9 C2.68 9 1.36 9 0 9 C0 8.34 0 7.68 0 7 C-0.66 7 -1.32 7 -2 7 C-2 7.66 -2 8.32 -2 9 C-2.66 8.67 -3.32 8.34 -4 8 C-2.68 5.36 -1.36 2.72 0 0 Z " fill="#889DFF" transform="translate(241,319)"/>
<path d="M0 0 C1.65 0.33 3.3 0.66 5 1 C4.67 3.64 4.34 6.28 4 9 C2.68 8.67 1.36 8.34 0 8 C0.33 7.34 0.66 6.68 1 6 C0.34 6 -0.32 6 -1 6 C-1 6.99 -1 7.98 -1 9 C-1.99 8.67 -2.98 8.34 -4 8 C-2.68 5.36 -1.36 2.72 0 0 Z " fill="#718BFF" transform="translate(279,315)"/>
<path d="M0 0 C1.32 0.33 2.64 0.66 4 1 C4 3.64 4 6.28 4 9 C2.68 9 1.36 9 0 9 C0 8.34 0 7.68 0 7 C-0.66 7 -1.32 7 -2 7 C-2 7.66 -2 8.32 -2 9 C-2.66 8.67 -3.32 8.34 -4 8 C-2.68 5.36 -1.36 2.72 0 0 Z " fill="#889DFF" transform="translate(367,305)"/>
<path d="M0 0 C0.33 0.99 0.66 1.98 1 3 C0.01 3 -0.98 3 -2 3 C-1.34 3.33 -0.68 3.66 0 4 C-0.33 5.65 -0.66 7.3 -1 9 C-2.98 9 -4.96 9 -7 9 C-6.67 6.69 -6.34 4.38 -6 2 C-4.02 1.34 -2.04 0.68 0 0 Z " fill="#6B85FF" transform="translate(298,313)"/>
<path d="M0 0 C1.98 0 3.96 0 6 0 C6 0.66 6 1.32 6 2 C4.68 2.33 3.36 2.66 2 3 C2.99 3.33 3.98 3.66 5 4 C5 5.32 5 6.64 5 8 C2.69 8.33 0.38 8.66 -2 9 C-2 8.01 -2 7.02 -2 6 C-1.01 6 -0.02 6 1 6 C0.34 5.67 -0.32 5.34 -1 5 C-0.67 3.35 -0.34 1.7 0 0 Z " fill="#627EFF" transform="translate(308,312)"/>
<path d="M0 0 C1.65 0 3.3 0 5 0 C4.67 0.99 4.34 1.98 4 3 C3.01 2.34 2.02 1.68 1 1 C1 1.66 1 2.32 1 3 C2.32 3.33 3.64 3.66 5 4 C4.67 5.32 4.34 6.64 4 8 C-0.75 9 -0.75 9 -3 9 C-3 8.01 -3 7.02 -3 6 C-1.68 6 -0.36 6 1 6 C0.34 5.67 -0.32 5.34 -1 5 C-0.67 3.35 -0.34 1.7 0 0 Z " fill="#6782FF" transform="translate(335,309)"/>
<path d="M0 0 C2.64 0 5.28 0 8 0 C8 0.66 8 1.32 8 2 C7.34 2 6.68 2 6 2 C5.34 4.31 4.68 6.62 4 9 C2.68 8.67 1.36 8.34 0 8 C0.33 6.35 0.66 4.7 1 3 C0.34 3 -0.32 3 -1 3 C-0.67 2.01 -0.34 1.02 0 0 Z " fill="#778FFF" transform="translate(349,307)"/>
<path d="M0 0 C0.94875 0.04125 1.8975 0.0825 2.875 0.125 C2.875 1.115 2.875 2.105 2.875 3.125 C1.555 3.125 0.235 3.125 -1.125 3.125 C-1.455 4.445 -1.785 5.765 -2.125 7.125 C-0.805 6.465 0.515 5.805 1.875 5.125 C1.875 6.115 1.875 7.105 1.875 8.125 C-0.5 8.75 -0.5 8.75 -3.125 9.125 C-5.125 7.125 -5.125 7.125 -5.375 4.625 C-4.98192433 0.69424327 -3.8631953 0.15452781 0 0 Z " fill="#6B86FF" transform="translate(399.125,301.875)"/>
<path d="M0 0 C2.97 0 5.94 0 9 0 C9 0.66 9 1.32 9 2 C8.01 2.33 7.02 2.66 6 3 C5.67 4.98 5.34 6.96 5 9 C3.68 9 2.36 9 1 9 C1.020625 8.071875 1.04125 7.14375 1.0625 6.1875 C1.15769604 2.97713989 1.15769604 2.97713989 0 0 Z " fill="#6984FF" transform="translate(206,323)"/>
<path d="M0 0 C0.66 0.33 1.32 0.66 2 1 C2 3 2 3 0.625 4.4375 C0.08875 4.953125 -0.4475 5.46875 -1 6 C-1.99 7.485 -1.99 7.485 -3 9 C-3.66 9 -4.32 9 -5 9 C-5.66 6.36 -6.32 3.72 -7 1 C-5.824375 1.309375 -5.824375 1.309375 -4.625 1.625 C-3.75875 1.74875 -2.8925 1.8725 -2 2 C-1.34 1.34 -0.68 0.68 0 0 Z " fill="#6984FF" transform="translate(170,327)"/>
<path d="M0 0 C1.98 0.495 1.98 0.495 4 1 C4 2.65 4 4.3 4 6 C4.99 5.67 5.98 5.34 7 5 C6.67 5.99 6.34 6.98 6 8 C3.69 8.33 1.38 8.66 -1 9 C-0.67 6.03 -0.34 3.06 0 0 Z " fill="#6B86FF" transform="translate(253,318)"/>
<path d="M0 0 C0.66 0.33 1.32 0.66 2 1 C2 1.66 2 2.32 2 3 C3.32 2.67 4.64 2.34 6 2 C6.33 3.98 6.66 5.96 7 8 C5.35 8.33 3.7 8.66 2 9 C2 8.01 2 7.02 2 6 C1.01 6 0.02 6 -1 6 C-0.67 4.02 -0.34 2.04 0 0 Z " fill="#3A73BF" transform="translate(215,266)"/>
<path d="M0 0 C1.32 0.33 2.64 0.66 4 1 C3.34 3.64 2.68 6.28 2 9 C0.68 8.67 -0.64 8.34 -2 8 C-1.34 5.36 -0.68 2.72 0 0 Z " fill="#6E88FF" transform="translate(179,326)"/>
<path d="M0 0 C1.32 0 2.64 0 4 0 C3.34 2.97 2.68 5.94 2 9 C1.01 9 0.02 9 -1 9 C-0.67 6.03 -0.34 3.06 0 0 Z " fill="#6984FF" transform="translate(322,310)"/>
<path d="M0 0 C2 3 2 3 2 7 C0.35 6.67 -1.3 6.34 -3 6 C-2.625 3.5625 -2.625 3.5625 -2 1 C-1.34 0.67 -0.68 0.34 0 0 Z " fill="#8BACD9" transform="translate(262,262)"/>
<path d="M0 0 C0.99 0 1.98 0 3 0 C1.94124926 3.40312738 0.99097846 6.01353231 -1 9 C-3.625 9.1875 -3.625 9.1875 -6 9 C-3 7 -3 7 -1 7 C-1.020625 6.030625 -1.04125 5.06125 -1.0625 4.0625 C-1 1 -1 1 0 0 Z " fill="#7D94FF" transform="translate(228,321)"/>
<path d="M0 0 C1.98 0.495 1.98 0.495 4 1 C3.67 3.31 3.34 5.62 3 8 C2.34 8 1.68 8 1 8 C0.40267181 5.23735711 0 2.83967231 0 0 Z " fill="#5C7AFF" transform="translate(241,319)"/>
<path d="M0 0 C1.98 0.495 1.98 0.495 4 1 C3.67 3.31 3.34 5.62 3 8 C2.34 8 1.68 8 1 8 C0.40267181 5.23735711 0 2.83967231 0 0 Z " fill="#5C7AFF" transform="translate(367,305)"/>
<path d="M0 0 C0.66 0 1.32 0 2 0 C2 0.66 2 1.32 2 2 C2.66 2 3.32 2 4 2 C4.33 3.32 4.66 4.64 5 6 C3.68 6.33 2.36 6.66 1 7 C0.67 4.69 0.34 2.38 0 0 Z " fill="#748DFF" transform="translate(193,326)"/>
<path d="M0 0 C0.66 0 1.32 0 2 0 C2 2.64 2 5.28 2 8 C0.68 7.67 -0.64 7.34 -2 7 C-1.34 4.69 -0.68 2.38 0 0 Z " fill="#5B78FF" transform="translate(351,308)"/>
<path d="M0 0 C0.99 0.66 1.98 1.32 3 2 C2.67 3.32 2.34 4.64 2 6 C0.35 5.67 -1.3 5.34 -3 5 C-3 4.34 -3 3.68 -3 3 C-2.01 3 -1.02 3 0 3 C0 2.01 0 1.02 0 0 Z " fill="#6390CC" transform="translate(268,272)"/>
<path d="M0 0 C0.66 0 1.32 0 2 0 C2.33 2.31 2.66 4.62 3 7 C1.68 6.34 0.36 5.68 -1 5 C-0.67 3.35 -0.34 1.7 0 0 Z " fill="#E1EAF5" transform="translate(286,255)"/>
<path d="M0 0 C1.32 0 2.64 0 4 0 C4.33 1.32 4.66 2.64 5 4 C3.35 4 1.7 4 0 4 C0 2.68 0 1.36 0 0 Z " fill="#034CAE" transform="translate(266,277)"/>
</svg>
